<svg xmlns="http://www.w3.org/2000/svg" x="0px" y="0px" width="100" height="100" viewBox="0 0 64 64">
    <path fill="#8d6c9f"
        d="M35.774,47.286c-0.433,0-0.831-0.282-0.959-0.718l-0.564-1.919c-0.156-0.53,0.146-1.086,0.677-1.241 c0.531-0.158,1.087,0.148,1.241,0.677l0.564,1.919c0.156,0.53-0.146,1.086-0.677,1.241C35.963,47.273,35.867,47.286,35.774,47.286z"></path>
    <path fill="#8d6c9f"
        d="M30.779,47.938c-0.032,0-0.064-0.001-0.097-0.005c-0.55-0.053-0.952-0.541-0.899-1.091l0.191-1.991 c0.053-0.551,0.55-0.965,1.091-0.899c0.55,0.053,0.952,0.541,0.899,1.091l-0.191,1.991C31.724,47.551,31.289,47.938,30.779,47.938z"></path>
    <path fill="#8d6c9f"
        d="M25.928,46.158c-0.206,0-0.414-0.063-0.592-0.195c-0.445-0.327-0.54-0.953-0.212-1.397l1.187-1.61 c0.326-0.445,0.955-0.54,1.397-0.212c0.445,0.327,0.54,0.953,0.212,1.397l-1.187,1.61C26.538,46.018,26.234,46.158,25.928,46.158z"></path>
    <path fill="#8d6c9f"
        d="M22.799,42.033c-0.397,0-0.772-0.237-0.929-0.628c-0.206-0.513,0.044-1.095,0.557-1.301l1.856-0.743 c0.513-0.206,1.094,0.045,1.3,0.557c0.205,0.513-0.044,1.095-0.557,1.301l-1.857,0.743C23.049,42.011,22.923,42.033,22.799,42.033z"></path>
    <path fill="#f9dd8f"
        d="M31.807,57c-9.731,0-19.583-6.088-19.583-17.725c0-1.838,0.224-3.503,0.625-5.005	c-0.318,0.66-0.869,1.134-1.651,1.414c-0.317,0.114-0.646,0.172-0.977,0.172c-1.258,0-2.401-0.846-2.844-2.105	c-0.696-1.98-0.677-7.472,2.332-13.776c2.814-5.896,7.563-10.145,13.734-12.285C24.762,7.231,26.008,7,27.146,7	c1.258,0,2.407,0.28,3.417,0.834c1.91,1.049,3.178,2.93,3.875,5.75c0.846,3.415,0.709,7.55,0.641,8.822	c0.008-0.022,0.015-0.046,0.022-0.069c0.809-2.519,2.452-7.099,3.666-9.39c0.952-1.796,2.438-2.907,4.184-3.131	c0.218-0.028,0.439-0.043,0.662-0.043c1.809,0,3.59,0.95,5.293,2.823c1.737,1.871,10.049,11.459,7.662,21.58	c-0.317,1.342-1.532,2.278-2.955,2.278c-0.282,0-0.563-0.038-0.836-0.114c-0.672-0.189-1.227-0.617-1.608-1.178	c1.256,2.13,1.888,4.264,1.888,6.393C53.057,50.11,41.432,57,31.807,57z M34.632,24.897c-0.682,1.892-2.36,3.607-6.515,3.754	c-3.935,0.14-9.79,3.084-9.79,10.624c0,7.601,6.781,11.577,13.479,11.577c6.474,0,15.146-4.597,15.146-9.297	c0-3.018-3.305-6.969-9.069-10.845l-0.251-0.128l-0.055-0.038C35.553,29.136,34.558,27.212,34.632,24.897z M43.912,16.411	c-0.956,2.121-2.556,5.673-3.271,7.901c-0.202,0.63-0.068,0.801,0.591,1.259c4.571,3.065,7.831,6.173,9.756,9.29	c-0.377-0.71-0.503-1.578-0.287-2.437c1.412-5.624-4.066-13.223-6.296-15.676c-0.201-0.222-0.358-0.344-0.46-0.405	C43.935,16.362,43.924,16.385,43.912,16.411z M27.14,13.143c-0.443,0-1.034,0.124-1.709,0.358	c-11.964,4.152-12.701,15.944-12.35,18.094c0.107,0.656,0.122,1.241,0.045,1.752c2.496-7.55,9.652-10.657,14.777-10.839	c1.142-0.04,1.383-0.221,1.393-0.229c0.096-0.935-0.122-4.559-0.778-7.209c-0.369-1.496-0.792-1.794-0.873-1.838	C27.582,13.198,27.437,13.143,27.14,13.143z"></path>
    <path fill="#8d6c9f"
        d="M27.146,8c1.091,0,2.072,0.237,2.936,0.711c1.653,0.907,2.76,2.58,3.386,5.114	c0.79,3.194,0.694,7.072,0.611,8.58c-0.112,2.047-0.616,5.058-5.997,5.248c-4.323,0.153-10.755,3.374-10.755,11.623	c0,8.257,7.284,12.577,14.479,12.577c7.051,0,16.147-4.993,16.147-10.297c0-3.341-3.331-7.528-9.561-11.707l-0.244-0.126	c-3.047-2.118-2.731-5.098-2.095-7.08c0.85-2.651,2.461-7.082,3.598-9.226c0.794-1.501,2.011-2.427,3.427-2.607	c0.178-0.024,0.356-0.035,0.535-0.035c1.514,0,3.049,0.842,4.553,2.496c0.412,0.454,9.883,10.274,7.429,20.677	c-0.218,0.923-1.071,1.509-1.981,1.509c-0.189,0-0.379-0.025-0.568-0.078c-1.091-0.309-1.655-1.598-1.376-2.709	c1.538-6.128-4.15-13.979-6.525-16.593c-0.456-0.502-0.9-0.785-1.287-0.785c-0.342,0-0.638,0.221-0.858,0.708	c-1.008,2.238-2.584,5.741-3.311,8.007c-0.42,1.308,0.246,1.881,0.972,2.386c7.615,5.107,11.396,10.267,11.396,15.163	C52.057,49.557,40.979,56,31.806,56c-9.234,0-18.582-5.744-18.582-16.725c0-11.187,8.799-15.559,14.713-15.768	c1.847-0.065,2.231-0.481,2.312-1.07c0.149-1.08-0.073-4.821-0.762-7.607c-0.328-1.326-0.786-2.158-1.363-2.475	c-0.277-0.152-0.618-0.212-0.984-0.212c-0.669,0-1.425,0.201-2.037,0.414c-13.021,4.518-13.299,17.424-13.009,19.199	c0.28,1.713-0.166,2.604-1.233,2.987c-0.214,0.077-0.43,0.113-0.64,0.113c-0.838,0-1.597-0.575-1.9-1.438	c-0.622-1.769-0.57-7.018,2.291-13.013c2.696-5.649,7.246-9.72,13.159-11.771C24.99,8.211,26.117,8,27.146,8 M27.146,6	c-1.251,0-2.607,0.25-4.031,0.744c-6.429,2.231-11.377,6.657-14.309,12.8c-3.161,6.624-3.151,12.323-2.373,14.538	c0.583,1.66,2.105,2.775,3.787,2.775c0.39,0,0.777-0.059,1.152-0.176c-0.098,0.826-0.149,1.691-0.149,2.595	C11.224,51.568,21.578,58,31.806,58c10.289,0,22.25-7.183,22.25-16.445c0-1.373-0.24-2.743-0.718-4.109	c0.092,0.006,0.183,0.009,0.275,0.009c1.889,0,3.504-1.254,3.927-3.049c2.442-10.349-5.395-19.792-7.855-22.439l-0.039-0.043	c-1.901-2.091-3.93-3.151-6.033-3.151c-0.265,0-0.534,0.018-0.797,0.052c-2.07,0.264-3.825,1.562-4.932,3.655	c-0.585,1.104-1.264,2.714-1.904,4.377c-0.109-1.162-0.288-2.369-0.571-3.513c-0.768-3.106-2.195-5.195-4.365-6.386	C29.885,6.322,28.574,6,27.146,6L27.146,6z M14.178,28.933c0.463-3.913,2.56-11.357,11.58-14.487c0.547-0.19,1.044-0.3,1.368-0.303	c0.092,0.158,0.255,0.503,0.419,1.167c0.533,2.153,0.745,4.841,0.75,6.173c-0.118,0.01-0.26,0.019-0.429,0.025	C23.461,21.664,17.639,23.855,14.178,28.933L14.178,28.933z M41.598,24.603c0.571-1.773,1.731-4.442,2.653-6.505	c2.275,2.738,6.353,8.83,5.592,13.535c-1.991-2.326-4.683-4.63-8.069-6.901C41.7,24.68,41.642,24.637,41.598,24.603L41.598,24.603z M31.806,49.852c-6.201,0-12.479-3.633-12.479-10.577c0-7.366,5.773-9.516,8.825-9.624c2.593-0.092,4.557-0.779,5.884-2.054	c0.513,1.475,1.51,2.753,2.971,3.769l0.108,0.075l0.117,0.06l0.14,0.072c5.375,3.624,8.581,7.351,8.581,9.982	C45.954,45.277,38.153,49.852,31.806,49.852L31.806,49.852z"></path>
</svg>